<svg width="65" height="66" viewBox="0 0 65 66" fill="none" xmlns="http://www.w3.org/2000/svg">
    <path d="M58.0176 43.9238C54.7168 46.4629 51.2891 48.6211 47.4805 50.1445L54.3359 62.0781L61.1914 64.998C62.4609 65.5059 63.8574 64.7441 63.9844 63.3477L64.873 55.9844L58.0176 43.9238ZM63.3496 31.8633C63.9844 30.9746 63.6035 29.5781 62.5879 29.0703L59.0332 27.0391C58.0176 26.5312 56.875 26.9121 56.3672 27.8008C51.1621 35.9258 42.1484 40.75 32.5 40.75C29.4531 40.75 26.4062 40.2422 23.6133 39.3535L32.1191 24.5C32.2461 24.5 32.373 24.5 32.373 24.5C32.5 24.5 32.627 24.5 32.7539 24.5L39.2285 35.7988C43.1641 34.6562 46.7188 32.498 49.6387 29.5781L43.0371 18.1523C44.0527 16.502 44.6875 14.4707 44.6875 12.3125C44.6875 5.58398 39.2285 0.125 32.5 0.125C25.6445 0.125 20.3125 5.58398 20.3125 12.3125C20.3125 14.4707 20.8203 16.502 21.8359 18.1523L13.0762 33.1328C11.5527 31.7363 10.0293 30.0859 8.88672 28.1816C8.25195 27.293 7.10938 27.0391 6.09375 27.5469L2.53906 29.5781C1.65039 30.2129 1.26953 31.4824 1.9043 32.498C3.80859 35.418 6.2207 38.084 9.01367 40.3691L0 55.9844L0.888672 63.3477C1.01562 64.7441 2.41211 65.5059 3.68164 64.998L10.5371 62.0781L19.4238 46.5898C23.6133 48.1133 27.9297 48.875 32.5 48.875C45.0684 48.875 56.6211 42.4004 63.3496 31.8633ZM32.5 8.25C34.6582 8.25 36.5625 10.1543 36.5625 12.3125C36.5625 14.5977 34.6582 16.375 32.5 16.375C30.2148 16.375 28.4375 14.5977 28.4375 12.3125C28.4375 10.1543 30.2148 8.25 32.5 8.25Z" fill="#00AFEF"/>
</svg>
