<svg width="800" height="600" xmlns="http://www.w3.org/2000/svg">
 <g>
  <title>Layer 1</title>
  <g id="svg_1">
   <path id="svg_2" fill-rule="evenodd" clip-rule="evenodd" d="m27.2621,327.16589l0,-43.7984l5.0637,2.2016l0,43.6195l12.0401,-6.942l12.8175,-7.4304l0,-29.6323l-12.8175,-7.4305l-12.8106,-7.39601l-2.1466,1.22464l0,-5.86179l2.1466,-1.23152l15.3424,8.889l15.3494,8.86148l0,35.5285l-15.3494,8.8615l-15.3424,8.8821l-15.37,-8.8821l-15.34253,-8.8615l0,-35.5285l15.34253,-8.86148l1.5342,-0.8944l0,5.86178l-11.81302,6.8388l0,29.6323l12.81062,7.4304l8.545,4.9193z" fill="none"/>
  </g>
  <g stroke="null" id="svg_8">
   <g stroke="null" id="svg_3">
    <path stroke="null" id="svg_4" fill-rule="evenodd" clip-rule="evenodd" d="m14.3034,33.93336l2.07051,1.05698l0.34291,0.10563l0.32807,-0.06752l6.5185,-3.75839l6.93938,-4.02281l0,-16.0429l-6.93938,-4.02287l-6.93565,-4.00419l-1.16217,0.66302l0,-3.17357l1.16217,-0.66674l8.30636,4.8125l8.31015,4.7976l0,19.2351l-8.31015,4.79761l-8.30636,4.80876l-8.3213,-4.80876l-8.30643,-4.79761l0,-19.2351l8.30643,-4.7976l0.83061,-0.48423l0,3.17356l-6.39556,3.70252l0,16.0429l6.93566,4.02281l4.62626,2.6633l0,-0.00001z" fill="#144279"/>
   </g>
   <path stroke="null" fill="#ffffff" opacity="undefined" d="m30.58939,11.21428l0.03749,16.18522l-13.99288,8.18003l-14.18634,-7.94091l-0.03748,-16.50763l14.09983,-8.08094l14.07939,8.16424l-0.00001,-0.00001z" id="svg_11"/>
   <g stroke="null" id="svg_5">
    <path stroke="null" id="svg_6" d="m2.67136,6.45866l25.2515,0l0,25.2515l-25.2515,0l0,-25.2515z" fill="none"/>
    <path stroke="null" id="svg_7" fill="#144279" d="m11.95231,18.15455c1.11676,2.19474 2.9121,3.99008 5.11071,5.10684l1.70616,-1.71004c0.21327,-0.21327 0.5196,-0.27531 0.78716,-0.19c0.86859,0.28694 1.8031,0.44205 2.76863,0.44205c0.43042,0 0.77553,0.34511 0.77553,0.77553l0,2.71434c0,0.43042 -0.34511,0.77553 -0.77553,0.77553c-7.28219,0 -13.18394,-5.90175 -13.18394,-13.18394c0,-0.43042 0.34899,-0.77553 0.77553,-0.77553l2.71434,0c0.43042,0 0.77553,0.34511 0.77553,0.77553c0,0.96553 0.15511,1.90004 0.44205,2.76863c0.08531,0.26756 0.02327,0.57389 -0.19,0.78716l-1.70616,1.71391l0,0z"/>'</g>
  </g>
 </g>

</svg>