<svg width="82" height="66" viewBox="0 0 82 66" fill="none" xmlns="http://www.w3.org/2000/svg">
    <path d="M64.3594 44.8125H17.6406C17.1328 44.8125 16.625 45.3203 16.625 45.8281V51.9219C16.625 52.5566 17.0059 52.9375 17.6406 52.9375H64.3594C64.8672 52.9375 65.375 52.5566 65.375 51.9219V45.8281C65.375 45.3203 64.8672 44.8125 64.3594 44.8125ZM64.3594 57H17.6406C17.0059 57 16.625 57.5078 16.625 58.0156V64.1094C16.625 64.7441 17.0059 65.125 17.6406 65.125H64.3594C64.8672 65.125 65.375 64.7441 65.375 64.1094V58.0156C65.375 57.5078 64.8672 57 64.3594 57ZM64.3594 32.625H17.6406C17.1328 32.625 16.625 33.1328 16.625 33.6406V39.7344C16.625 40.3691 17.1328 40.75 17.6406 40.75H64.3594C64.8672 40.75 65.375 40.3691 65.375 39.7344V33.6406C65.375 33.1328 64.8672 32.625 64.3594 32.625ZM77.8164 14.9785L43.2852 0.632812C42.5234 0.378906 41.7617 0.251953 40.873 0.251953C40.1113 0.251953 39.3496 0.378906 38.5879 0.632812L4.05664 14.9785C1.77148 15.9941 0.375 18.1523 0.375 20.6914V64.1094C0.375 64.7441 0.755859 65.125 1.39062 65.125H11.5469C12.0547 65.125 12.5625 64.7441 12.5625 64.1094V32.625C12.5625 30.4668 14.3398 28.5625 16.625 28.5625H65.248C67.5332 28.5625 69.4375 30.4668 69.4375 32.625V64.1094C69.4375 64.7441 69.8184 65.125 70.4531 65.125H80.6094C81.1172 65.125 81.625 64.7441 81.625 64.1094V20.6914C81.625 18.1523 80.1016 15.9941 77.8164 14.9785Z" fill="#00AFEF"/>
</svg>
