<svg width="65" height="66" viewBox="0 0 65 66" fill="none" xmlns="http://www.w3.org/2000/svg">
    <path d="M65 22.5957C65 10.1543 54.9707 0.125 42.5293 0.125C30.2148 0.251953 20.3125 10.1543 20.3125 22.4688C20.3125 25.0078 20.6934 27.293 21.3281 29.5781L0.888672 50.0176C0.253906 50.6523 0 51.4141 0 52.1758V62.0781C0 63.8555 1.26953 65.125 3.04688 65.125H17.2656C18.916 65.125 20.3125 63.8555 20.3125 62.0781V57H25.3906C27.041 57 28.4375 55.7305 28.4375 53.9531V48.875H33.1348C34.0234 48.875 34.7852 48.4941 35.4199 47.8594L38.4668 44.4316C39.7363 44.6855 41.1328 44.8125 42.6562 44.8125C54.9707 44.8125 65 34.9102 65 22.5957ZM42.6562 16.375C42.6562 13.0742 45.3223 10.2812 48.75 10.2812C52.0508 10.2812 54.8438 13.0742 54.8438 16.375C54.8438 19.8027 52.0508 22.4688 48.75 22.4688C45.3223 22.4688 42.6562 19.8027 42.6562 16.375Z" fill="#00AFEF"/>
</svg>
