<svg width="18" height="19" viewBox="0 0 18 19" fill="none" xmlns="http://www.w3.org/2000/svg">
    <path d="M10.4062 13.75C10.8633 13.75 11.25 13.3984 11.25 12.9062V7H14.3086C14.9414 7 15.2578 6.26172 14.8008 5.80469L9.45703 0.460938C9.21094 0.214844 8.75391 0.214844 8.50781 0.460938L3.16406 5.80469C2.70703 6.26172 3.02344 7 3.65625 7H6.75V12.9062C6.75 13.3984 7.10156 13.75 7.59375 13.75H10.4062ZM18 13.4688C18 13.0117 17.6133 12.625 17.1562 12.625H12.375V12.9062C12.375 13.9961 11.4609 14.875 10.4062 14.875H7.59375C6.50391 14.875 5.625 13.9961 5.625 12.9062V12.625H0.84375C0.351562 12.625 0 13.0117 0 13.4688V17.4062C0 17.8984 0.351562 18.25 0.84375 18.25H17.1562C17.6133 18.25 18 17.8984 18 17.4062V13.4688ZM13.6406 16.5625C13.6406 16.9492 13.3242 17.2656 12.9375 17.2656C12.5508 17.2656 12.2344 16.9492 12.2344 16.5625C12.2344 16.1758 12.5508 15.8594 12.9375 15.8594C13.3242 15.8594 13.6406 16.1758 13.6406 16.5625ZM15.8906 16.5625C15.8906 16.9492 15.5742 17.2656 15.1875 17.2656C14.8008 17.2656 14.4844 16.9492 14.4844 16.5625C14.4844 16.1758 14.8008 15.8594 15.1875 15.8594C15.5742 15.8594 15.8906 16.1758 15.8906 16.5625Z" fill="white"/>
</svg>
