<svg width="82" height="58" viewBox="0 0 82 58" fill="none" xmlns="http://www.w3.org/2000/svg">
<path d="M12.5625 24.5625C17.0059 24.5625 20.6875 21.0078 20.6875 16.4375C20.6875 11.9941 17.0059 8.3125 12.5625 8.3125C7.99219 8.3125 4.4375 11.9941 4.4375 16.4375C4.4375 21.0078 7.99219 24.5625 12.5625 24.5625ZM69.4375 24.5625C73.8809 24.5625 77.5625 21.0078 77.5625 16.4375C77.5625 11.9941 73.8809 8.3125 69.4375 8.3125C64.8672 8.3125 61.3125 11.9941 61.3125 16.4375C61.3125 21.0078 64.8672 24.5625 69.4375 24.5625ZM73.5 28.625H65.375C63.0898 28.625 61.0586 29.6406 59.5352 31.0371C64.7402 33.8301 68.2949 38.9082 69.1836 44.875H77.5625C79.7207 44.875 81.625 43.0977 81.625 40.8125V36.75C81.625 32.3066 77.9434 28.625 73.5 28.625ZM41 28.625C48.7441 28.625 55.2188 22.2773 55.2188 14.4062C55.2188 6.66211 48.7441 0.1875 41 0.1875C33.1289 0.1875 26.7812 6.66211 26.7812 14.4062C26.7812 22.2773 33.1289 28.625 41 28.625ZM50.6484 32.6875H49.6328C46.9668 33.957 44.0469 34.7188 41 34.7188C37.8262 34.7188 34.9062 33.957 32.2402 32.6875H31.2246C23.0996 32.6875 16.625 39.2891 16.625 47.4141V50.9688C16.625 54.3965 19.291 57.0625 22.7188 57.0625H59.2812C62.582 57.0625 65.375 54.3965 65.375 50.9688V47.4141C65.375 39.2891 58.7734 32.6875 50.6484 32.6875ZM22.3379 31.0371C20.8145 29.6406 18.7832 28.625 16.625 28.625H8.5C3.92969 28.625 0.375 32.3066 0.375 36.75V40.8125C0.375 43.0977 2.15234 44.875 4.4375 44.875H12.6895C13.5781 38.9082 17.1328 33.8301 22.3379 31.0371Z" fill="white"/>
</svg>
