<svg width="181" height="106" viewBox="0 0 181 106" fill="none" xmlns="http://www.w3.org/2000/svg">
    <path fill-rule="evenodd" clip-rule="evenodd" d="M80.0215 -1.52588e-05L85.0852 2.2016V20.0278L80.0215 22.2294V-1.52588e-05Z" fill="#00AFEF"/>
    <path fill-rule="evenodd" clip-rule="evenodd" d="M77.8679 37.3173L72.8042 35.1157V53.3753L77.7165 56.2237L77.8679 56.32V37.3173Z" fill="#144279"/>
    <path fill-rule="evenodd" clip-rule="evenodd" d="M108.278 34.2213L103.214 32.0128V56.4232L103.366 56.3475L108.278 53.506V34.2213Z" fill="#00AFEF"/>
    <path fill-rule="evenodd" clip-rule="evenodd" d="M100.531 24.8782L95.4673 22.6766V34.1938L100.531 31.9921V24.8782Z" fill="#00AFEF"/>
    <path fill-rule="evenodd" clip-rule="evenodd" d="M86.2621 64.8031V21.0047L91.3258 23.2063V66.8258L103.366 59.8838L116.183 52.4534V22.8211L103.366 15.3906L90.5553 7.99459L88.4087 9.21923V3.35744L90.5553 2.12592L105.898 11.0149L121.247 19.8764V55.4049L105.898 64.2664L90.5553 73.1485L75.1853 64.2664L59.8428 55.4049V19.8764L75.1853 11.0149L76.7195 10.1205V15.9823L64.9065 22.8211V52.4534L77.7171 59.8838L86.2621 64.8031Z" fill="#144279"/>
    <path d="M4.71424 92.8594H9.51618V95.6002H0.877067V81.5233H9.31884V84.2641H4.71424V87.1365H8.68296V89.8774H4.71424V92.8594Z" fill="#144279"/>
    <path d="M20.6756 88.4521L24.3374 95.6002H20.0178L18.5049 91.6534L16.9919 95.6002H12.9136L16.3561 88.4521L13.0013 81.5233H17.3428L18.5049 85.1193L19.6889 81.5233H23.8111L20.6756 88.4521Z" fill="#144279"/>
    <path d="M28.2799 81.5233H34.7921C36.9409 81.5233 38.0153 82.4296 38.0153 84.2422V88.2767C38.0153 90.0893 36.9409 90.9956 34.7921 90.9956H32.1171V95.6002H28.2799V81.5233ZM34.1782 87.7724V84.7465C34.1782 84.4249 33.9955 84.2641 33.63 84.2641H32.1171V88.2548H33.63C33.9955 88.2548 34.1782 88.094 34.1782 87.7724Z" fill="#144279"/>
    <path d="M46.2352 92.8594H51.0372V95.6002H42.3981V81.5233H50.8398V84.2641H46.2352V87.1365H50.204V89.8774H46.2352V92.8594Z" fill="#144279"/>
    <path d="M59.1493 90.6009V95.6002H55.3121V81.5233H61.8243C63.9732 81.5233 65.0476 82.4296 65.0476 84.2422V87.882C65.0476 89.2707 64.419 90.1259 63.1619 90.4475L65.7492 95.6002H61.627L59.3905 90.6009H59.1493ZM60.6622 84.2641H59.1493V87.9917H60.6622C61.0277 87.9917 61.2104 87.8309 61.2104 87.5093V84.7465C61.2104 84.4249 61.0277 84.2641 60.6622 84.2641Z" fill="#144279"/>
    <path d="M78.1352 81.5233V84.2641H75.4162V95.6002H71.5791V84.2641H68.8821V81.5233H78.1352Z" fill="#144279"/>
    <path d="M89.6432 81.5233H96.1554C98.3042 81.5233 99.3786 82.4296 99.3786 84.2422V88.2767C99.3786 90.0893 98.3042 90.9956 96.1554 90.9956H93.4803V95.6002H89.6432V81.5233ZM95.5415 87.7724V84.7465C95.5415 84.4249 95.3587 84.2641 94.9933 84.2641H93.4803V88.2548H94.9933C95.3587 88.2548 95.5415 88.094 95.5415 87.7724Z" fill="#144279"/>
    <path d="M107.605 90.6009V95.6002H103.768V81.5233H110.28C112.429 81.5233 113.504 82.4296 113.504 84.2422V87.882C113.504 89.2707 112.875 90.1259 111.618 90.4475L114.205 95.6002H110.083L107.847 90.6009H107.605ZM109.118 84.2641H107.605V87.9917H109.118C109.484 87.9917 109.666 87.8309 109.666 87.5093V84.7465C109.666 84.4249 109.484 84.2641 109.118 84.2641Z" fill="#144279"/>
    <path d="M121.264 81.5233H124.509C126.657 81.5233 127.732 82.4296 127.732 84.2422V92.8813C127.732 94.6939 126.657 95.6002 124.509 95.6002H121.264C119.115 95.6002 118.04 94.6939 118.04 92.8813V84.2422C118.04 82.4296 119.115 81.5233 121.264 81.5233ZM123.895 92.377V84.7465C123.895 84.4249 123.712 84.2641 123.347 84.2641H122.426C122.06 84.2641 121.877 84.4249 121.877 84.7465V92.377C121.877 92.6986 122.06 92.8594 122.426 92.8594H123.347C123.712 92.8594 123.895 92.6986 123.895 92.377Z" fill="#144279"/>
    <path d="M131.827 89.9651H135.664V92.377C135.664 92.6986 135.847 92.8594 136.213 92.8594H136.454C136.819 92.8594 137.002 92.6986 137.002 92.377V81.5233H140.839V92.8813C140.839 94.6939 139.765 95.6002 137.616 95.6002H135.05C132.902 95.6002 131.827 94.6939 131.827 92.8813V89.9651Z" fill="#144279"/>
    <path d="M149.409 92.8594H154.211V95.6002H145.571V81.5233H154.013V84.2641H149.409V87.1365H153.377V89.8774H149.409V92.8594Z" fill="#144279"/>
    <path d="M167.913 86.7857H164.076V84.5272C164.076 84.2057 163.894 84.0449 163.528 84.0449H162.761C162.395 84.0449 162.213 84.2057 162.213 84.5272V92.5963C162.213 92.9179 162.395 93.0787 162.761 93.0787H163.528C163.894 93.0787 164.076 92.9179 164.076 92.5963V90.4255H167.913V92.8813C167.913 94.6939 166.839 95.6002 164.69 95.6002H161.599C159.45 95.6002 158.375 94.6939 158.375 92.8813V84.2422C158.375 82.4296 159.45 81.5233 161.599 81.5233H164.69C166.839 81.5233 167.913 82.4296 167.913 84.2422V86.7857Z" fill="#144279"/>
    <path d="M180.896 81.5233V84.2641H178.177V95.6002H174.34V84.2641H171.643V81.5233H180.896Z" fill="#144279"/>
</svg>
