<svg width="25" height="25" viewBox="0 0 25 25" fill="none" xmlns="http://www.w3.org/2000/svg">
    <path d="M20.7656 3.8738C18.5251 1.57866 15.4649 0.267149 12.1861 0.267149C5.51927 0.267149 0.0546463 5.73178 0.0546463 12.3986C0.0546463 14.5845 0.655755 16.661 1.69403 18.4644L0 24.7487L6.39361 23.1093C8.19694 24.0383 10.1642 24.5847 12.1861 24.5847C18.9076 24.5847 24.4815 19.1201 24.4815 12.4533C24.4815 9.17449 23.0607 6.16895 20.7656 3.8738ZM12.1861 22.5082C10.3828 22.5082 8.63411 22.0164 7.04937 21.0874L6.72149 20.8688L2.89625 21.9071L3.93453 18.1911L3.6613 17.8086C2.67767 16.1692 2.1312 14.3112 2.1312 12.3986C2.1312 6.87935 6.66685 2.34371 12.2408 2.34371C14.9184 2.34371 17.4322 3.38199 19.3448 5.29461C21.2574 7.20723 22.405 9.72095 22.405 12.4533C22.405 17.9725 17.76 22.5082 12.1861 22.5082ZM17.76 14.967C17.4322 14.8031 15.9567 14.0927 15.6835 13.9834C15.4102 13.8741 15.1917 13.8194 14.9731 14.1473C14.8091 14.4205 14.208 15.1309 14.0441 15.3495C13.8255 15.5135 13.6616 15.5681 13.3883 15.4042C11.585 14.5298 10.4374 13.8194 9.23522 11.7975C8.90734 11.2511 9.5631 11.3057 10.1096 10.1581C10.2189 9.93954 10.1642 9.7756 10.1096 9.61166C10.0549 9.44772 9.39916 7.97227 9.18057 7.37117C8.90734 6.77006 8.68876 6.8247 8.47017 6.8247C8.30623 6.8247 8.08765 6.8247 7.92371 6.8247C7.70512 6.8247 7.37725 6.87935 7.10402 7.20723C6.83078 7.5351 6.06574 8.24551 6.06574 9.72095C6.06574 11.2511 7.10402 12.6719 7.26795 12.8904C7.43189 13.0544 9.39916 16.1146 12.4594 17.4261C14.372 18.3004 15.137 18.3551 16.1207 18.1911C16.6671 18.1365 17.8693 17.4807 18.1426 16.7703C18.4158 16.0599 18.4158 15.4588 18.3065 15.3495C18.2519 15.1856 18.0333 15.1309 17.76 14.967Z" fill="#1D1D1D"/>
</svg>
