<svg width="28" height="29" viewBox="0 0 28 29" fill="none" xmlns="http://www.w3.org/2000/svg">
    <path d="M24.2629 3.25078C23.5525 2.64967 20.7109 0.573115 14.4813 0.573115C14.4813 0.573115 7.10402 0.135944 3.49736 3.41472C1.47545 5.43663 0.765048 8.33289 0.710402 11.9942C0.655755 15.6008 0.546463 22.4316 7.10402 24.2896V27.0766C7.10402 27.0766 7.04937 28.2241 7.81442 28.4974C8.7434 28.7706 9.23522 27.8963 10.1096 26.9673C10.6014 26.4208 11.2571 25.7104 11.7489 25.1093C16.2299 25.4918 19.6727 24.6175 20.1098 24.5082C20.9842 24.1803 26.1209 23.5246 26.9406 16.7484C27.815 9.69904 26.5581 5.27269 24.2629 3.25078ZM24.9733 16.2019C24.3176 21.8852 20.1098 22.2677 19.3448 22.5409C19.0169 22.5956 16.0114 23.3606 12.1861 23.142C12.1861 23.142 9.34451 26.5301 8.47017 27.4591C8.19694 27.7323 7.86906 27.7323 7.86906 27.1312C7.86906 26.7487 7.86906 22.4316 7.86906 22.4316C2.34979 20.9015 2.67767 15.109 2.73231 12.1035C2.78696 9.04329 3.33342 6.58421 5.02746 4.89017C8.08765 2.10321 14.372 2.54038 14.372 2.54038C19.6727 2.54038 22.1864 4.17977 22.7875 4.67159C24.7548 6.36562 25.7384 10.3548 24.9733 16.2019ZM17.3775 11.8302C17.3229 10.2455 16.5032 9.37117 14.9731 9.26187C14.4813 9.26187 14.4266 9.97227 14.9184 9.97227C16.066 10.0816 16.6125 10.628 16.7218 11.8302C16.7218 12.3221 17.4322 12.2674 17.3775 11.8302ZM18.5251 12.4314C18.5251 12.8685 19.2355 12.9232 19.2355 12.4314C19.2901 9.80834 17.5961 7.62248 14.4266 7.4039C13.9348 7.34925 13.8802 8.05965 14.372 8.1143C17.1043 8.27824 18.5797 10.1362 18.5251 12.4314ZM21.0935 13.1418C21.0388 8.38753 17.8147 5.60057 13.7709 5.54593C13.3337 5.54593 13.3337 6.25633 13.7709 6.25633C17.3775 6.31097 20.3284 8.71541 20.3831 13.1418C20.3831 13.6336 21.0935 13.6336 21.0935 13.1418ZM20.4377 18.4971C20.7109 18.0053 20.6563 17.5681 20.2738 17.2402C19.5634 16.5845 18.5797 15.8741 17.76 15.4369C17.1589 15.109 16.5578 15.3276 16.2846 15.6555L15.7928 16.3112C15.5195 16.6391 15.0277 16.5845 15.0277 16.5845C11.3664 15.6555 10.3828 11.9942 10.3828 11.9942C10.3828 11.9942 10.3828 11.5024 10.7107 11.2291L11.3664 10.6827C11.6943 10.4094 11.8582 9.80834 11.5304 9.20723C11.3664 8.87935 10.9839 8.27824 10.7107 7.95036C10.4374 7.51319 9.72704 6.74814 9.72704 6.74814C9.45381 6.31097 8.96199 6.25633 8.47017 6.52956H8.41553C7.37725 7.07602 6.22968 8.22359 6.6122 9.31652C6.6122 9.31652 6.88543 10.3002 8.033 12.3767C8.57947 13.415 9.18057 14.2347 9.72704 14.9451C10.3281 15.7101 11.1478 16.5298 12.0222 17.2402C13.7709 18.6064 16.4485 20.0272 17.5961 20.3551H17.6507C18.7437 20.7376 19.8912 19.59 20.4377 18.5517V18.4971Z" fill="#1D1D1D"/>
</svg>
