<svg width="180" height="97" viewBox="0 0 180 97" fill="none" xmlns="http://www.w3.org/2000/svg">
<g clip-path="url(#clip0_64_445)">
<path fill-rule="evenodd" clip-rule="evenodd" d="M79.1338 0L84.197 2.19113V19.9324L79.1338 22.1236V0Z" fill="#00AFEF"/>
<path fill-rule="evenodd" clip-rule="evenodd" d="M76.9876 37.1394L71.9243 34.9482V53.1209L76.8362 55.9557L76.9876 56.0516V37.1394Z" fill="white"/>
<path fill-rule="evenodd" clip-rule="evenodd" d="M107.394 34.0574L102.331 31.8594V56.1535L102.482 56.0782L107.394 53.2503V34.0574Z" fill="#00AFEF"/>
<path fill-rule="evenodd" clip-rule="evenodd" d="M99.6414 24.7595L94.5781 22.5684V34.0307L99.6414 31.8396V24.7595Z" fill="#00AFEF"/>
<path fill-rule="evenodd" clip-rule="evenodd" d="M85.3735 64.495V20.9052L90.4368 23.0963V66.5081L102.483 59.5992L115.292 52.2041V22.7128L102.483 15.3178L89.6663 7.95695L87.5199 9.17576V3.34188L89.6663 2.11621L105.014 10.9629L120.355 19.7822V55.1416L105.014 63.9609L89.6663 72.8007L74.2976 63.9609L58.9565 55.1416V19.7822L74.2976 10.9629L75.8318 10.0728V15.9066L64.0198 22.7128V52.2041L76.8362 59.5992L85.3735 64.495Z" fill="white"/>
<path d="M3.83872 93.3429H8.65431V96.0818H0V82.0586H8.44105V84.7975H3.83872V87.6597H7.80126V90.3986H3.83872V93.3429Z" fill="white"/>
<path d="M19.7991 88.9538L23.4589 96.0681H19.1387L17.6252 92.1378L16.1117 96.0681H12.0322L15.4719 88.9538L12.1148 82.0586H16.4557L17.6183 85.6397L18.8016 82.0586H22.9292L19.7991 88.9538Z" fill="white"/>
<path d="M27.4009 82.0586H33.9157C36.0621 82.0586 37.1353 82.9602 37.1353 84.7633V88.7826C37.1353 90.5812 36.0621 91.4827 33.9157 91.4873H31.2396V96.0681H27.4009V82.0586ZM33.2965 88.2759V85.27C33.2965 84.9481 33.1177 84.7838 32.7531 84.7838H31.2396V88.7552H32.7531C33.1177 88.7552 33.2965 88.5977 33.2965 88.2759Z" fill="white"/>
<path d="M45.3558 93.3429H50.1714V96.0818H41.5171V82.0586H49.9581V84.7975H45.3558V87.6597H49.3252V90.3986H45.3558V93.3429Z" fill="white"/>
<path d="M58.2689 91.0902V96.0681H54.4302V82.0586H60.945C63.0914 82.0586 64.1646 82.9602 64.1646 84.7633V88.3855C64.2274 88.9686 64.0689 89.554 63.7201 90.0266C63.3713 90.4993 62.8574 90.8249 62.2796 90.9395L64.8663 96.0681H60.7386L58.5028 91.0902H58.2689ZM59.7824 84.7838H58.2689V88.495H59.7824C60.147 88.495 60.3258 88.3376 60.3258 88.0157V85.2768C60.3258 84.9481 60.147 84.7838 59.7824 84.7838Z" fill="white"/>
<path d="M77.2558 82.0576V84.7966H74.504V96.0809H70.6721V84.7829H68.0029V82.0439L77.2558 82.0576Z" fill="white"/>
<path d="M88.7446 82.0586H95.2594C97.4058 82.0586 98.479 82.9602 98.479 84.7633V88.7826C98.479 90.5812 97.4058 91.4827 95.2594 91.4873H92.5971V96.0681H88.7446V82.0586ZM94.6472 88.2759V85.27C94.6472 84.9481 94.4614 84.7838 94.0968 84.7838H92.5833V88.7552H94.0968C94.4752 88.7552 94.6609 88.5977 94.6609 88.2759H94.6472Z" fill="white"/>
<path d="M106.714 91.0902V96.0681H102.875V82.0586H109.383C111.529 82.0586 112.602 82.9602 112.602 84.7633V88.3855C112.665 88.9686 112.507 89.554 112.158 90.0266C111.809 90.4993 111.295 90.8249 110.718 90.9395L113.304 96.0681H109.177L106.941 91.0902H106.714ZM108.227 84.7838H106.714V88.495H108.227C108.592 88.495 108.778 88.3376 108.778 88.0157V85.2768C108.778 84.9481 108.592 84.7838 108.227 84.7838Z" fill="white"/>
<path d="M120.39 82.0586H123.637C125.784 82.0586 126.864 82.9624 126.864 84.7633V93.3635C126.864 95.1643 125.784 96.0681 123.637 96.0681H120.39C118.244 96.0681 117.171 95.1666 117.171 93.3635V84.7633C117.157 82.9647 118.23 82.0632 120.39 82.0586ZM123.025 92.8636V85.27C123.025 84.9481 122.839 84.7838 122.475 84.7838H121.553C121.188 84.7838 121.009 84.9481 121.009 85.27V92.8636C121.009 93.1786 121.188 93.3429 121.553 93.3429H122.454C122.819 93.3429 123.004 93.1786 123.004 92.8636H123.025Z" fill="white"/>
<path d="M130.936 90.4944H134.775V92.8978C134.775 93.2128 134.961 93.3772 135.325 93.3772H135.566C135.931 93.3772 136.109 93.2128 136.109 92.8978V82.0586H139.948V93.3635C139.948 95.162 138.875 96.0636 136.729 96.0681H134.149C131.993 96.0681 130.918 95.1666 130.922 93.3635L130.936 90.4944Z" fill="white"/>
<path d="M148.52 93.3429H153.335V96.0818H144.681V82.0586H153.122V84.7975H148.52V87.6597H152.489V90.3986H148.52V93.3429Z" fill="white"/>
<path d="M167.025 87.2968H163.186V85.0509C163.186 84.729 163.001 84.5715 162.636 84.5715H161.872C161.508 84.5715 161.322 84.729 161.322 85.0509V93.0759C161.322 93.3977 161.508 93.562 161.872 93.562H162.636C163.001 93.562 163.186 93.3977 163.186 93.0759V90.919H167.025V93.3635C167.025 95.1643 165.945 96.0681 163.799 96.0681H160.71C158.554 96.0681 157.479 95.1666 157.483 93.3635V84.7633C157.483 82.9647 158.559 82.0632 160.71 82.0586H163.799C165.945 82.0586 167.025 82.9624 167.025 84.7633V87.2968Z" fill="white"/>
<path d="M180 82.0576V84.7966H177.283V96.0809H173.444V84.7829H170.747V82.0439L180 82.0576Z" fill="white"/>
</g>
<defs>
<clipPath id="clip0_64_445">
<rect width="180" height="96.0674" fill="white"/>
</clipPath>
</defs>
</svg>
